<?xml version='1.0' encoding='utf-8'?>
<svg xmlns="http://www.w3.org/2000/svg" viewBox="0 0 128 128" fill="none">
  <rect width="128" height="128" rx="24" fill="#0B1120"/>
  <defs>
    <mask id="cut2">
      <rect width="128" height="128" fill="white"/>
      <line x1="110" y1="22" x2="18" y2="106" stroke="black" stroke-width="22" stroke-linecap="butt"/>
    </mask>
  </defs>
  <g mask="url(#cut2)">
    <g transform="translate(7.8730158730158735 -41.23809523809524) scale(1.2756132756132756)" fill="#FFFFFF" stroke="#FFFFFF">
      <path d="M48.2441 47.8864V60.9547H59.8916V69.0573H48.2441V100.375C48.2441 102.71 48.5862 104.38 49.207 105.451H49.2061C49.8642 106.522 50.6759 107.215 51.6338 107.572C52.6921 107.932 53.8095 108.114 54.9883 108.114C55.8899 108.114 56.614 108.067 57.168 107.979C57.7575 107.861 58.2299 107.768 58.584 107.697L59.0615 107.601L59.1699 108.077L60.874 115.605L60.9707 116.031L60.5615 116.184C59.9606 116.41 59.1423 116.627 58.1191 116.841L58.1201 116.842C57.0517 117.091 55.7203 117.211 54.1367 117.211C51.6952 117.211 49.3053 116.685 46.9717 115.639L46.9697 115.638C44.6376 114.583 42.6997 112.974 41.1592 110.822L41.1562 110.819C39.6161 108.633 38.8633 105.898 38.8633 102.648V69.0573H30.625V60.9547H38.8633V47.8864H48.2441Z"/>
    </g>
  </g>
  <line x1="110" y1="22" x2="18" y2="106" stroke="#2E75E4" stroke-width="10" stroke-linecap="butt"/>
</svg>